Coordinates
version=1
nRows=25
nColumns=28
inDegrees=yes

Units are S.I. units (second, meters, Newtons, ...)
Angles are in degrees.

endheader
time	pelvis_tilt	pelvis_list	pelvis_rotation	pelvis_tx	pelvis_ty	pelvis_tz	hip_flexion_r	hip_adduction_r	hip_rotation_r	knee_angle_r	ankle_angle_r	subtalar_angle_r	mtp_angle_r	hip_flexion_l	hip_adduction_l	hip_rotation_l	knee_angle_l	socket_flexion	socket_adduction	socket_rotation	socket_tx	socket_ty	socket_tz	foot_flex	lumbar_extension	lumbar_bending	lumbar_rotation
      0.27083333	     -0.95931408	      3.25211392	      1.90387540	     -0.41571927	      0.98288778	      0.24152068	     15.79443083	     -5.73531413	      2.58435802	    -62.79819234	    -13.80105162	    -16.19118699	     14.02324459	     11.58972375	      5.70091499	     -6.24304689	    -24.92379298	     -3.14327078	     -3.95422977	     11.52613726	      0.00000000	     -0.00604641	      0.00000000	      4.06885857	     -7.59710658	     -6.02712045	     -4.80032056
      0.27500000	     -0.89045050	      3.05397943	      1.94015023	     -0.41009458	      0.98392949	      0.24093022	     16.41395964	     -5.53233560	      2.43899086	    -62.70263732	    -12.88009303	    -16.63111463	     13.89818903	     10.99330125	      5.49860621	     -6.32658304	    -24.64532202	     -3.13623143	     -3.96710242	     11.71876549	      0.00000000	     -0.00596414	      0.00000000	      4.14472650	     -7.65438351	     -5.75049213	     -4.97523348
      0.27916667	     -0.76416336	      2.83371133	      1.93874028	     -0.40437756	      0.98511879	      0.24047847	     16.92450618	     -5.26344443	      2.33803800	    -62.49571876	    -11.95853406	    -17.13365992	     13.57371949	     10.27766186	      5.24885339	     -6.50018575	    -24.21435237	     -3.03691747	     -3.96789789	     11.98017175	      0.00000000	     -0.00594938	      0.00000000	      4.22221515	     -7.74903464	     -5.45023548	     -5.23098590
      0.28333333	     -0.69564427	      2.72112519	      1.96908085	     -0.39876625	      0.98607641	      0.23970757	     17.53793792	     -5.20148086	      2.18798786	    -62.32644745	    -11.50214920	    -17.38011503	     13.48864068	      9.69805803	      5.16619019	     -6.54627075	    -24.05079918	     -3.16848330	     -4.00825441	     12.07728740	      0.00000000	     -0.00567001	      0.00000000	      4.28628774	     -7.79612108	     -5.24388097	     -5.29614913
      0.28750000	     -0.59512539	      2.45252368	      2.03651557	     -0.39312917	      0.98723665	      0.23932999	     18.00174869	     -4.83323560	      2.06333756	    -61.99141585	    -10.21166122	    -18.08420336	     13.21438948	      9.03000641	      4.84832036	     -6.68971219	    -23.59521342	     -3.00099197	     -3.98273230	     12.41910876	      0.00000000	     -0.00568481	      0.00000000	      4.32805185	     -7.89601958	     -4.92329064	     -5.55202065
      0.29166667	      0.04112206	      2.27470843	      1.80181100	     -0.38692900	      0.98931572	      0.23923857	     17.82731231	     -4.47910748	      2.18789888	    -61.51704415	     -9.18386162	    -18.24222286	      9.52981830	      7.35130878	      4.62186395	     -7.06016475	    -22.06589964	     -2.29862974	     -3.81614756	     12.76251123	      0.00000000	     -0.00599751	      0.00000000	      4.39768275	     -8.53338471	     -4.66619488	     -5.63754163
      0.29583333	      0.05958278	      2.16906861	      1.82728557	     -0.38136720	      0.99020069	      0.23848566	     18.43305265	     -4.41591726	      2.03188753	    -61.16383989	     -8.71978050	    -18.48742472	      9.53078336	      6.85749972	      4.55546406	     -7.07487418	    -21.96464716	     -2.46622259	     -3.87440129	     12.81499403	      0.00000000	     -0.00559673	      0.00000000	      4.43868204	     -8.51121790	     -4.47486922	     -5.69106510
      0.30000000	      0.04961434	      1.94373365	      1.92885747	     -0.37575275	      0.99107933	      0.23790474	     18.97596359	     -4.15066661	      1.85690528	    -60.69919150	     -7.71631078	    -19.02770924	      9.50867480	      6.37009411	      4.31959838	     -7.12278556	    -21.72345088	     -2.47872316	     -3.88094529	     13.00444851	      0.00000000	     -0.00542714	      0.00000000	      4.44519933	     -8.47746183	     -4.18672188	     -5.86142785
      0.30416667	      0.07698752	      1.72200417	      2.00845680	     -0.37030009	      0.99198233	      0.23737884	     19.48511376	     -3.86511265	      1.72888157	    -60.18967538	     -6.97060483	    -19.48610616	      9.39892282	      5.85335458	      4.08074981	     -7.18941097	    -21.45802835	     -2.46335296	     -3.87425303	     13.19852737	      0.00000000	     -0.00525201	      0.00000000	      4.48233697	     -8.50249128	     -3.88782273	     -6.08342686
      0.30833333	      0.17072909	      1.42564804	      2.07685887	     -0.36475921	      0.99298308	      0.23691333	     19.87207780	     -3.46702721	      1.60587431	    -59.58127590	     -6.27441801	    -20.05864109	      9.05035912	      5.20561427	      3.74775975	     -7.29037983	    -21.03647578	     -2.35446800	     -3.83740730	     13.48589637	      0.00000000	     -0.00526275	      0.00000000	      4.51679760	     -8.61067669	     -3.50598469	     -6.42302692
      0.31250000	      0.18865590	      1.36669984	      2.10089182	     -0.35926100	      0.99386184	      0.23626777	     20.37215656	     -3.41193436	      1.51242196	    -58.96245692	     -5.96276759	    -20.26843146	      8.95501240	      4.72423940	      3.72404005	     -7.32617348	    -20.91995478	     -2.49160779	     -3.89811417	     13.51083745	      0.00000000	     -0.00466704	      0.00000000	      4.53729890	     -8.60433061	     -3.38110534	     -6.48891106
      0.31666667	      0.65880058	      0.94806254	      2.13247501	     -0.35346284	      0.99548384	      0.23597531	     20.19690172	     -2.79730882	      1.40430299	    -58.08675170	     -5.36436479	    -21.25395768	      7.18756921	      3.45340165	      3.22617117	     -7.51833103	    -19.88639929	     -2.02979433	     -3.73923014	     13.93058667	      0.00000000	     -0.00501544	      0.00000000	      4.54568047	     -9.12941348	     -2.83303291	     -6.96914117
      0.32083333	      0.62406348	      0.90829434	      2.16685368	     -0.34803785	      0.99619087	      0.23529352	     20.71680530	     -2.75522553	      1.32535061	    -57.38997582	     -4.96840417	    -21.42136107	      7.13450150	      3.05383544	      3.23675697	     -7.52691117	    -19.81169223	     -2.17006059	     -3.80553557	     13.92206739	      0.00000000	     -0.00444616	      0.00000000	      4.56631244	     -9.07385458	     -2.75891219	     -6.97178986
      0.32500000	      0.56622047	      0.79926385	      2.23450471	     -0.34262456	      0.99684615	      0.23470154	     21.22488138	     -2.61844088	      1.22669937	    -56.61809789	     -4.38961683	    -21.68696483	      7.06129404	      2.66075127	      3.14790795	     -7.52507333	    -19.65876688	     -2.26196455	     -3.84338014	     13.97823997	      0.00000000	     -0.00397323	      0.00000000	      4.56334999	     -9.00641203	     -2.60514077	     -7.02711687
      0.32916667	      0.50420773	      0.60045538	      2.32151951	     -0.33716579	      0.99741843	      0.23416080	     21.69387335	     -2.36248883	      1.10254123	    -55.78972695	     -3.69818020	    -22.02608114	      6.92762345	      2.25796522	      2.95219104	     -7.51298496	    -19.42806161	     -2.27709517	     -3.84407388	     14.08856670	      0.00000000	     -0.00377123	      0.00000000	      4.56360242	     -8.92770981	     -2.36118111	     -7.15854271
      0.33333333	      0.47992552	      0.28329484	      2.42549575	     -0.33181290	      0.99795376	      0.23373982	     22.09915794	     -1.94899976	      0.94768938	    -54.91396978	     -2.99370299	    -22.43443095	      6.60012617	      1.79952293	      2.59631403	     -7.47804836	    -19.06629155	     -2.15754084	     -3.77100823	     14.26739421	      0.00000000	     -0.00392596	      0.00000000	      4.56871630	     -8.88917455	     -1.94783762	     -7.42976876
      0.33750000	      0.53011649	     -0.00784472	      2.52270215	     -0.32631755	      0.99865939	      0.23315727	     22.35821200	     -1.58253366	      0.79614340	    -53.89435561	     -2.57377084	    -22.83600840	      5.90272759	      1.19702764	      2.29880040	     -7.43499239	    -18.58779480	     -2.04762562	     -3.70182998	     14.34714163	      0.00000000	     -0.00389343	      0.00000000	      4.60417834	     -8.97537662	     -1.53140425	     -7.78495537
      0.34166667	      0.56003155	     -0.17047562	      2.61929102	     -0.32086299	      0.99929775	      0.23258765	     22.63029867	     -1.35211237	      0.70309008	    -52.85613119	     -2.12755446	    -23.17597467	      5.26531536	      0.64677463	      2.14525278	     -7.35614753	    -18.20684877	     -1.98995736	     -3.65186458	     14.38113286	      0.00000000	     -0.00365573	      0.00000000	      4.61027326	     -9.01336955	     -1.27794605	     -7.97169434
      0.34583333	      0.50828268	     -0.15629523	      2.63014868	     -0.31569145	      0.99973013	      0.23211788	     23.06690356	     -1.33597397	      0.66780681	    -51.87888769	     -1.92293082	    -23.27297376	      5.17940550	      0.30620696	      2.20865014	     -7.36150695	    -18.15381224	     -2.09711389	     -3.74422395	     14.33587507	      0.00000000	     -0.00303062	      0.00000000	      4.63397152	     -9.00166728	     -1.30845101	     -8.00824099
      0.35000000	      0.69320041	     -0.49264875	      2.69577535	     -0.31003416	      1.00057697	      0.23167809	     23.03703510	     -0.83375152	      0.63384564	    -50.63412992	     -1.12623502	    -23.34747762	      2.02883111	     -0.68221690	      1.89331040	     -6.94271097	    -16.88001797	     -1.46753496	     -3.43956814	     14.09925300	      0.00000000	     -0.00335057	      0.00000000	      4.65031478	     -9.18966575	     -0.86333447	     -8.23193687
      0.35416667	      0.60516972	     -0.46443086	      2.72973187	     -0.30483995	      1.00083999	      0.23117138	     23.46356098	     -0.84348723	      0.59508411	    -49.57543308	     -0.85047852	    -23.45911034	      2.02109131	     -0.98108576	      1.96489722	     -6.96040001	    -16.84829064	     -1.60237221	     -3.51746844	     14.07206752	      0.00000000	     -0.00274800	      0.00000000	      4.67351284	     -9.13819162	     -0.88805437	     -8.27166874
      0.35833333	      0.49378331	     -0.50348701	      2.79857583	     -0.29955503	      1.00105289	      0.23069986	     23.84044813	     -0.75477727	      0.56097341	    -48.40842996	     -0.46965461	    -23.60489757	      2.01294310	     -1.26840839	      1.95321099	     -6.93053619	    -16.76889112	     -1.70004614	     -3.57648299	     14.10787927	      0.00000000	     -0.00229637	      0.00000000	      4.68700522	     -9.03399974	     -0.83746556	     -8.34689609
      0.36250000	      0.36570503	     -0.92523267	      2.97818206	     -0.29404637	      1.00115317	      0.23020055	     24.11340128	     -0.26010144	      0.35969191	    -47.04647886	      0.15267077	    -23.85707448	      1.89821593	     -1.60748617	      1.47858854	     -6.81555707	    -16.44473675	     -1.64921809	     -3.50913033	     14.25663991	      0.00000000	     -0.00255342	      0.00000000	      4.71713119	     -8.87934233	     -0.30040117	     -8.71400270
      0.36666667	      0.35263139	     -1.12768781	      3.12959477	     -0.28869640	      1.00140017	      0.22964378	     24.26383503	     -0.02008566	      0.21288779	    -45.66696895	      0.41610712	    -24.03237167	      1.63717971	     -2.04448953	      1.27572691	     -6.70731918	    -16.17731191	     -1.61087365	     -3.51019720	     14.24246386	      0.00000000	     -0.00245266	      0.00000000	      4.74404072	     -8.88370919	     -0.03878123	     -9.06044761
      0.37083333	      0.24421114	     -1.05984643	      3.15563370	     -0.28348124	      1.00145454	      0.22921189	     24.60137854	     -0.05568057	      0.22501464	    -44.40679615	      0.65491585	    -24.11194047	      1.60901558	     -2.32669473	      1.38837870	     -6.69249124	    -16.13074946	     -1.72716408	     -3.57363608	     14.22486955	      0.00000000	     -0.00185907	      0.00000000	      4.77640029	     -8.81266156	     -0.09763803	     -9.09351945
